<?xml version="1.0" standalone="no"?>
<!DOCTYPE svg PUBLIC "-//W3C//DTD SVG 20010904//EN"
 "http://www.w3.org/TR/2001/REC-SVG-20010904/DTD/svg10.dtd">
<svg version="1.0" xmlns="http://www.w3.org/2000/svg"
 width="1181.000000pt" height="1181.000000pt" viewBox="0 0 1181.000000 1181.000000"
 preserveAspectRatio="xMidYMid meet">
<metadata>
Created by potrace 1.14, written by Peter Selinger 2001-2017
</metadata>
<g transform="translate(0.000000,1181.000000) scale(0.100000,-0.100000)"
fill="#000000" stroke="none">
<path d="M3548 11345 c-2 -1 -42 -5 -90 -9 -446 -31 -806 -298 -931 -691 -39
-120 -50 -197 -51 -350 0 -101 2 -130 20 -235 6 -39 31 -124 44 -155 5 -11 18
-42 30 -69 54 -130 197 -299 330 -392 139 -98 246 -140 485 -190 17 -3 109 -7
206 -9 160 -2 206 1 349 28 59 11 211 68 279 104 139 75 277 196 359 316 82
118 150 301 167 447 7 66 7 275 0 310 -3 14 -8 44 -11 68 -6 54 -49 181 -82
247 -80 160 -195 291 -342 389 -108 72 -179 104 -300 139 -77 23 -114 30 -221
43 -43 5 -237 13 -241 9z"/>
<path d="M6758 8465 c-2 -2 -46 -5 -98 -9 -52 -3 -111 -8 -130 -11 -19 -2 -57
-7 -85 -10 -27 -4 -57 -8 -65 -10 -8 -2 -31 -7 -50 -10 -19 -3 -73 -15 -120
-26 -47 -11 -94 -22 -104 -25 -33 -6 -207 -65 -285 -96 -231 -91 -486 -242
-669 -396 -37 -31 -78 -66 -91 -77 -41 -35 -218 -218 -267 -277 -26 -32 -49
-56 -51 -54 -4 4 -12 97 -28 340 -3 38 -7 95 -10 125 -5 59 -9 120 -20 286 -4
55 -9 102 -12 105 -2 3 -433 5 -957 6 l-953 1 0 -3804 0 -3803 1016 0 1016 0
0 2682 0 2681 60 91 c144 217 323 379 541 490 71 36 256 101 317 111 18 3 57
10 87 15 72 13 189 23 270 23 76 0 298 -12 320 -18 8 -2 32 -6 52 -9 182 -27
380 -106 499 -200 121 -95 213 -236 272 -414 20 -59 38 -120 40 -137 3 -16 8
-43 11 -60 12 -62 17 -103 23 -195 4 -52 7 -1212 7 -2577 l1 -2483 1018 0
1018 0 -4 2608 c-2 1434 -6 2636 -10 2671 -3 36 -9 94 -12 130 -5 60 -11 115
-20 181 -2 14 -7 45 -10 70 -5 40 -17 110 -32 190 -9 53 -44 203 -48 210 -2 4
-7 20 -9 37 -11 57 -78 258 -128 378 -261 629 -706 1018 -1353 1182 -105 26
-122 30 -170 38 -16 3 -41 7 -55 10 -40 7 -81 13 -135 19 -27 3 -75 8 -105 12
-55 6 -476 14 -482 9z"/>
</g>
</svg>
